<?xml version="1.0" standalone="no"?>
<!DOCTYPE svg PUBLIC "-//W3C//DTD SVG 20010904//EN"
 "http://www.w3.org/TR/2001/REC-SVG-20010904/DTD/svg10.dtd">
<svg version="1.0" xmlns="http://www.w3.org/2000/svg"
 width="143.000000pt" height="143.000000pt" viewBox="0 0 143.000000 143.000000"
 preserveAspectRatio="xMidYMid meet">

<g transform="translate(0.000000,143.000000) scale(0.100000,-0.100000)"
fill="#000000" stroke="none">
<path d="M53 1286 c-25 -21 -28 -31 -28 -81 0 -50 3 -60 28 -81 l28 -24 638 0
638 0 27 26 c41 42 34 135 -13 171 -12 9 -168 12 -653 13 l-637 0 -28 -24z"/>
<path d="M280 1033 c-50 -19 -68 -84 -32 -116 17 -15 64 -17 470 -17 l451 0
21 22 c25 27 26 59 1 89 l-19 24 -439 2 c-241 1 -445 -1 -453 -4z"/>
<path d="M345 805 l-25 -24 0 -336 0 -335 85 0 85 0 0 335 0 336 -25 24 c-16
17 -35 25 -60 25 -25 0 -44 -8 -60 -25z"/>
<path d="M672 823 c-7 -3 -19 -18 -27 -33 -12 -24 -15 -87 -15 -355 l0 -325
90 0 91 0 -3 334 -3 334 -24 26 c-24 25 -73 34 -109 19z"/>
<path d="M979 817 c-37 -28 -39 -49 -39 -381 l0 -326 90 0 91 0 -3 334 -3 334
-24 26 c-27 29 -83 35 -112 13z"/>
</g>
</svg>
