<!--?xml version="1.0" standalone="no"?-->
              <svg id="sw-js-blob-svg" viewBox="0 0 100 100" xmlns="http://www.w3.org/2000/svg" version="1.1">
                    <defs> 
                        <linearGradient id="sw-gradient" x1="0" x2="1" y1="1" y2="0">
                            <stop id="stop1" stop-color="rgba(107.527, 55, 248, 1)" offset="0%"></stop>
                            <stop id="stop2" stop-color="rgba(31, 180.565, 251, 1)" offset="100%"></stop>
                        </linearGradient>
                    </defs>
                <path fill="url(#sw-gradient)" d="M15.9,-26.7C18.1,-26.3,15.8,-17,14,-11.1C12.2,-5.2,11,-2.6,13.6,1.5C16.2,5.6,22.5,11.1,23.6,15.8C24.6,20.5,20.4,24.3,15.6,25.4C10.8,26.5,5.4,24.9,-1.1,26.8C-7.6,28.7,-15.2,34.1,-20.8,33.5C-26.3,32.8,-29.8,26,-31.1,19.4C-32.5,12.8,-31.7,6.4,-30.4,0.7C-29.1,-4.9,-27.3,-9.9,-24.3,-13.4C-21.2,-17,-16.8,-19.3,-12.5,-18.5C-8.3,-17.7,-4.1,-13.9,1.4,-16.2C6.8,-18.6,13.7,-27.1,15.9,-26.7Z" width="100%" height="100%" transform="translate(50 50)" stroke-width="0" style="transition: all 0.3s ease 0s;"></path>
              </svg>