<!--?xml version="1.0" standalone="no"?-->
              <svg id="sw-js-blob-svg" viewBox="0 0 100 100" xmlns="http://www.w3.org/2000/svg" version="1.1">
                    <defs> 
                        <linearGradient id="sw-gradient" x1="0" x2="1" y1="1" y2="0">
                            <stop id="stop1" stop-color="rgba(248, 117, 55, 1)" offset="0%"></stop>
                            <stop id="stop2" stop-color="rgba(142.304, 31, 251, 1)" offset="100%"></stop>
                        </linearGradient>
                    </defs>
                <path fill="url(#sw-gradient)" d="M21.1,-25.5C26,-21.1,27.5,-13.1,29.8,-4.6C32.2,4,35.4,13.1,33.1,21C30.8,28.9,23.1,35.6,14.9,36.8C6.7,38,-2,33.6,-9.1,29.2C-16.2,24.8,-21.8,20.3,-25.4,14.5C-29.1,8.6,-30.7,1.5,-29.9,-5.6C-29,-12.7,-25.7,-19.6,-20.3,-23.9C-14.9,-28.2,-7.4,-29.8,0.4,-30.2C8.2,-30.6,16.3,-29.9,21.1,-25.5Z" width="100%" height="100%" transform="translate(50 50)" stroke-width="0" style="transition: all 0.3s ease 0s;"></path>
              </svg>